<mxfile host="app.diagrams.net" modified="2022-03-25T05:56:13.298Z" agent="5.0 (Windows NT 10.0; Win64; x64) AppleWebKit/537.36 (KHTML, like Gecko) Chrome/99.0.4844.82 Safari/537.36" etag="iNTBX3HssTv5RIhu5F_d" version="17.2.1" type="github" pages="3">
  <diagram id="iPhuilVgwoS9Ke7_U8F6" name="第 1 页">
    <mxGraphModel dx="1038" dy="547" grid="1" gridSize="10" guides="1" tooltips="1" connect="1" arrows="1" fold="1" page="1" pageScale="1" pageWidth="827" pageHeight="1169" math="0" shadow="0">
      <root>
        <mxCell id="0" />
        <mxCell id="1" parent="0" />
        <mxCell id="vAi0L5TWATyvluraUV4B-5" style="edgeStyle=orthogonalEdgeStyle;rounded=0;orthogonalLoop=1;jettySize=auto;html=1;exitX=1;exitY=0.5;exitDx=0;exitDy=0;entryX=0.5;entryY=1;entryDx=0;entryDy=0;" parent="1" source="vAi0L5TWATyvluraUV4B-1" target="vAi0L5TWATyvluraUV4B-4" edge="1">
          <mxGeometry relative="1" as="geometry" />
        </mxCell>
        <mxCell id="vAi0L5TWATyvluraUV4B-8" style="edgeStyle=orthogonalEdgeStyle;rounded=0;orthogonalLoop=1;jettySize=auto;html=1;exitX=0.5;exitY=1;exitDx=0;exitDy=0;entryX=0.5;entryY=0;entryDx=0;entryDy=0;" parent="1" source="vAi0L5TWATyvluraUV4B-1" target="vAi0L5TWATyvluraUV4B-7" edge="1">
          <mxGeometry relative="1" as="geometry" />
        </mxCell>
        <mxCell id="vAi0L5TWATyvluraUV4B-1" value="MBS" style="rounded=1;whiteSpace=wrap;html=1;" parent="1" vertex="1">
          <mxGeometry x="200" y="180" width="120" height="60" as="geometry" />
        </mxCell>
        <mxCell id="vAi0L5TWATyvluraUV4B-3" style="edgeStyle=orthogonalEdgeStyle;rounded=0;orthogonalLoop=1;jettySize=auto;html=1;exitX=1;exitY=0.5;exitDx=0;exitDy=0;entryX=0;entryY=0.5;entryDx=0;entryDy=0;" parent="1" source="vAi0L5TWATyvluraUV4B-2" target="vAi0L5TWATyvluraUV4B-1" edge="1">
          <mxGeometry relative="1" as="geometry" />
        </mxCell>
        <mxCell id="vAi0L5TWATyvluraUV4B-2" value="" style="image;html=1;image=img/lib/clip_art/telecommunication/iPhone_128x128.png" parent="1" vertex="1">
          <mxGeometry x="40" y="170" width="80" height="80" as="geometry" />
        </mxCell>
        <mxCell id="vAi0L5TWATyvluraUV4B-6" style="edgeStyle=orthogonalEdgeStyle;rounded=0;orthogonalLoop=1;jettySize=auto;html=1;exitX=0;exitY=0.5;exitDx=0;exitDy=0;" parent="1" source="vAi0L5TWATyvluraUV4B-4" target="vAi0L5TWATyvluraUV4B-2" edge="1">
          <mxGeometry relative="1" as="geometry" />
        </mxCell>
        <mxCell id="vAi0L5TWATyvluraUV4B-4" value="UMP" style="rounded=1;whiteSpace=wrap;html=1;" parent="1" vertex="1">
          <mxGeometry x="380" y="90" width="120" height="60" as="geometry" />
        </mxCell>
        <mxCell id="vAi0L5TWATyvluraUV4B-11" style="edgeStyle=orthogonalEdgeStyle;rounded=0;orthogonalLoop=1;jettySize=auto;html=1;exitX=0.5;exitY=1;exitDx=0;exitDy=0;" parent="1" source="vAi0L5TWATyvluraUV4B-7" target="vAi0L5TWATyvluraUV4B-10" edge="1">
          <mxGeometry relative="1" as="geometry" />
        </mxCell>
        <mxCell id="vAi0L5TWATyvluraUV4B-7" value="KYC" style="rounded=1;whiteSpace=wrap;html=1;" parent="1" vertex="1">
          <mxGeometry x="200" y="310" width="120" height="60" as="geometry" />
        </mxCell>
        <mxCell id="vAi0L5TWATyvluraUV4B-9" value="DA &amp;amp; MS" style="text;html=1;strokeColor=none;fillColor=none;align=center;verticalAlign=middle;whiteSpace=wrap;rounded=0;" parent="1" vertex="1">
          <mxGeometry x="270" y="260" width="60" height="30" as="geometry" />
        </mxCell>
        <mxCell id="vAi0L5TWATyvluraUV4B-12" style="edgeStyle=orthogonalEdgeStyle;rounded=0;orthogonalLoop=1;jettySize=auto;html=1;entryX=1;entryY=0.5;entryDx=0;entryDy=0;" parent="1" source="vAi0L5TWATyvluraUV4B-10" target="vAi0L5TWATyvluraUV4B-7" edge="1">
          <mxGeometry relative="1" as="geometry">
            <Array as="points">
              <mxPoint x="390" y="470" />
              <mxPoint x="390" y="340" />
            </Array>
          </mxGeometry>
        </mxCell>
        <mxCell id="vAi0L5TWATyvluraUV4B-10" value="TKS" style="rounded=1;whiteSpace=wrap;html=1;" parent="1" vertex="1">
          <mxGeometry x="200" y="440" width="120" height="60" as="geometry" />
        </mxCell>
        <mxCell id="vAi0L5TWATyvluraUV4B-13" value="发送审核" style="text;html=1;strokeColor=none;fillColor=none;align=center;verticalAlign=middle;whiteSpace=wrap;rounded=0;" parent="1" vertex="1">
          <mxGeometry x="270" y="390" width="60" height="30" as="geometry" />
        </mxCell>
        <mxCell id="vAi0L5TWATyvluraUV4B-14" value="审核结束&lt;br&gt;通知结果" style="text;html=1;strokeColor=none;fillColor=none;align=center;verticalAlign=middle;whiteSpace=wrap;rounded=0;" parent="1" vertex="1">
          <mxGeometry x="410" y="390" width="60" height="30" as="geometry" />
        </mxCell>
      </root>
    </mxGraphModel>
  </diagram>
  <diagram id="n6dTZC5-hFCf9qfJC6Uz" name="第 2 页">
    <mxGraphModel dx="1483" dy="781" grid="1" gridSize="10" guides="1" tooltips="1" connect="1" arrows="1" fold="1" page="1" pageScale="1" pageWidth="827" pageHeight="1169" math="0" shadow="0">
      <root>
        <mxCell id="rVu3aqndrenk4j7JYDpi-0" />
        <mxCell id="rVu3aqndrenk4j7JYDpi-1" parent="rVu3aqndrenk4j7JYDpi-0" />
        <mxCell id="rVu3aqndrenk4j7JYDpi-4" style="edgeStyle=orthogonalEdgeStyle;rounded=0;orthogonalLoop=1;jettySize=auto;html=1;exitX=0.5;exitY=1;exitDx=0;exitDy=0;exitPerimeter=0;" parent="rVu3aqndrenk4j7JYDpi-1" source="rVu3aqndrenk4j7JYDpi-2" target="rVu3aqndrenk4j7JYDpi-5" edge="1">
          <mxGeometry relative="1" as="geometry">
            <mxPoint x="400" y="160" as="targetPoint" />
          </mxGeometry>
        </mxCell>
        <mxCell id="rVu3aqndrenk4j7JYDpi-2" value="" style="strokeWidth=2;html=1;shape=mxgraph.flowchart.start_2;whiteSpace=wrap;" parent="rVu3aqndrenk4j7JYDpi-1" vertex="1">
          <mxGeometry x="360" y="40" width="100" height="100" as="geometry" />
        </mxCell>
        <mxCell id="rVu3aqndrenk4j7JYDpi-17" style="edgeStyle=orthogonalEdgeStyle;rounded=0;orthogonalLoop=1;jettySize=auto;html=1;exitX=0.5;exitY=1;exitDx=0;exitDy=0;" parent="rVu3aqndrenk4j7JYDpi-1" source="rVu3aqndrenk4j7JYDpi-5" target="rVu3aqndrenk4j7JYDpi-6" edge="1">
          <mxGeometry relative="1" as="geometry" />
        </mxCell>
        <mxCell id="rVu3aqndrenk4j7JYDpi-5" value="发送OTP" style="rounded=1;whiteSpace=wrap;html=1;" parent="rVu3aqndrenk4j7JYDpi-1" vertex="1">
          <mxGeometry x="350" y="200" width="120" height="60" as="geometry" />
        </mxCell>
        <mxCell id="rVu3aqndrenk4j7JYDpi-19" style="edgeStyle=orthogonalEdgeStyle;rounded=0;orthogonalLoop=1;jettySize=auto;html=1;exitX=0.5;exitY=1;exitDx=0;exitDy=0;" parent="rVu3aqndrenk4j7JYDpi-1" source="rVu3aqndrenk4j7JYDpi-6" target="rVu3aqndrenk4j7JYDpi-7" edge="1">
          <mxGeometry relative="1" as="geometry" />
        </mxCell>
        <mxCell id="rVu3aqndrenk4j7JYDpi-6" value="验证OTP" style="rounded=1;whiteSpace=wrap;html=1;" parent="rVu3aqndrenk4j7JYDpi-1" vertex="1">
          <mxGeometry x="350" y="320" width="120" height="60" as="geometry" />
        </mxCell>
        <mxCell id="rVu3aqndrenk4j7JYDpi-20" style="edgeStyle=orthogonalEdgeStyle;rounded=0;orthogonalLoop=1;jettySize=auto;html=1;exitX=0.5;exitY=1;exitDx=0;exitDy=0;entryX=0.5;entryY=0;entryDx=0;entryDy=0;" parent="rVu3aqndrenk4j7JYDpi-1" source="rVu3aqndrenk4j7JYDpi-7" target="rVu3aqndrenk4j7JYDpi-8" edge="1">
          <mxGeometry relative="1" as="geometry" />
        </mxCell>
        <mxCell id="rVu3aqndrenk4j7JYDpi-7" value="进入代办公司清单页" style="rounded=1;whiteSpace=wrap;html=1;" parent="rVu3aqndrenk4j7JYDpi-1" vertex="1">
          <mxGeometry x="350" y="450" width="120" height="60" as="geometry" />
        </mxCell>
        <mxCell id="rVu3aqndrenk4j7JYDpi-21" style="edgeStyle=orthogonalEdgeStyle;rounded=0;orthogonalLoop=1;jettySize=auto;html=1;exitX=0.5;exitY=1;exitDx=0;exitDy=0;" parent="rVu3aqndrenk4j7JYDpi-1" source="rVu3aqndrenk4j7JYDpi-8" target="rVu3aqndrenk4j7JYDpi-9" edge="1">
          <mxGeometry relative="1" as="geometry" />
        </mxCell>
        <mxCell id="rVu3aqndrenk4j7JYDpi-8" value="查询代办公司清单" style="rounded=1;whiteSpace=wrap;html=1;" parent="rVu3aqndrenk4j7JYDpi-1" vertex="1">
          <mxGeometry x="350" y="585" width="120" height="60" as="geometry" />
        </mxCell>
        <mxCell id="-jjtU4rKuom3vNCgCdDQ-6" style="edgeStyle=orthogonalEdgeStyle;rounded=0;orthogonalLoop=1;jettySize=auto;html=1;exitX=0.5;exitY=1;exitDx=0;exitDy=0;entryX=0.5;entryY=0;entryDx=0;entryDy=0;" parent="rVu3aqndrenk4j7JYDpi-1" source="rVu3aqndrenk4j7JYDpi-9" target="rVu3aqndrenk4j7JYDpi-10" edge="1">
          <mxGeometry relative="1" as="geometry" />
        </mxCell>
        <mxCell id="rVu3aqndrenk4j7JYDpi-9" value="发起IDV流程" style="rounded=1;whiteSpace=wrap;html=1;" parent="rVu3aqndrenk4j7JYDpi-1" vertex="1">
          <mxGeometry x="350" y="720" width="120" height="60" as="geometry" />
        </mxCell>
        <mxCell id="rVu3aqndrenk4j7JYDpi-25" style="edgeStyle=orthogonalEdgeStyle;rounded=0;orthogonalLoop=1;jettySize=auto;html=1;exitX=0.5;exitY=1;exitDx=0;exitDy=0;" parent="rVu3aqndrenk4j7JYDpi-1" source="rVu3aqndrenk4j7JYDpi-10" target="rVu3aqndrenk4j7JYDpi-11" edge="1">
          <mxGeometry relative="1" as="geometry" />
        </mxCell>
        <mxCell id="rVu3aqndrenk4j7JYDpi-10" value="DA" style="rounded=1;whiteSpace=wrap;html=1;" parent="rVu3aqndrenk4j7JYDpi-1" vertex="1">
          <mxGeometry x="350" y="860" width="120" height="60" as="geometry" />
        </mxCell>
        <mxCell id="rVu3aqndrenk4j7JYDpi-26" style="edgeStyle=orthogonalEdgeStyle;rounded=0;orthogonalLoop=1;jettySize=auto;html=1;exitX=0.5;exitY=1;exitDx=0;exitDy=0;" parent="rVu3aqndrenk4j7JYDpi-1" source="rVu3aqndrenk4j7JYDpi-11" target="rVu3aqndrenk4j7JYDpi-14" edge="1">
          <mxGeometry relative="1" as="geometry" />
        </mxCell>
        <mxCell id="rVu3aqndrenk4j7JYDpi-11" value="MS" style="rounded=1;whiteSpace=wrap;html=1;" parent="rVu3aqndrenk4j7JYDpi-1" vertex="1">
          <mxGeometry x="350" y="1000" width="120" height="60" as="geometry" />
        </mxCell>
        <mxCell id="rVu3aqndrenk4j7JYDpi-28" style="edgeStyle=orthogonalEdgeStyle;rounded=0;orthogonalLoop=1;jettySize=auto;html=1;exitX=0.5;exitY=1;exitDx=0;exitDy=0;entryX=0.5;entryY=0;entryDx=0;entryDy=0;" parent="rVu3aqndrenk4j7JYDpi-1" source="rVu3aqndrenk4j7JYDpi-12" target="rVu3aqndrenk4j7JYDpi-13" edge="1">
          <mxGeometry relative="1" as="geometry" />
        </mxCell>
        <mxCell id="rVu3aqndrenk4j7JYDpi-12" value="提交客户信息" style="rounded=1;whiteSpace=wrap;html=1;" parent="rVu3aqndrenk4j7JYDpi-1" vertex="1">
          <mxGeometry x="350" y="1280" width="120" height="60" as="geometry" />
        </mxCell>
        <mxCell id="3QitttOkeHnhthOmKTJF-1" style="edgeStyle=orthogonalEdgeStyle;rounded=0;orthogonalLoop=1;jettySize=auto;html=1;exitX=0.5;exitY=1;exitDx=0;exitDy=0;entryX=0.5;entryY=0;entryDx=0;entryDy=0;" parent="rVu3aqndrenk4j7JYDpi-1" source="rVu3aqndrenk4j7JYDpi-13" target="3QitttOkeHnhthOmKTJF-0" edge="1">
          <mxGeometry relative="1" as="geometry" />
        </mxCell>
        <mxCell id="rVu3aqndrenk4j7JYDpi-13" value="发起风险评估" style="rounded=1;whiteSpace=wrap;html=1;fillColor=#f8cecc;strokeColor=#b85450;" parent="rVu3aqndrenk4j7JYDpi-1" vertex="1">
          <mxGeometry x="650" y="200" width="120" height="60" as="geometry" />
        </mxCell>
        <mxCell id="rVu3aqndrenk4j7JYDpi-27" style="edgeStyle=orthogonalEdgeStyle;rounded=0;orthogonalLoop=1;jettySize=auto;html=1;exitX=0.5;exitY=1;exitDx=0;exitDy=0;entryX=0.5;entryY=0;entryDx=0;entryDy=0;" parent="rVu3aqndrenk4j7JYDpi-1" source="rVu3aqndrenk4j7JYDpi-14" target="rVu3aqndrenk4j7JYDpi-12" edge="1">
          <mxGeometry relative="1" as="geometry" />
        </mxCell>
        <mxCell id="rVu3aqndrenk4j7JYDpi-14" value="查询FATCAT协议" style="rounded=1;whiteSpace=wrap;html=1;" parent="rVu3aqndrenk4j7JYDpi-1" vertex="1">
          <mxGeometry x="350" y="1140" width="120" height="60" as="geometry" />
        </mxCell>
        <mxCell id="3QitttOkeHnhthOmKTJF-4" style="edgeStyle=orthogonalEdgeStyle;rounded=0;orthogonalLoop=1;jettySize=auto;html=1;exitX=0.5;exitY=1;exitDx=0;exitDy=0;entryX=0.5;entryY=0;entryDx=0;entryDy=0;" parent="rVu3aqndrenk4j7JYDpi-1" source="rVu3aqndrenk4j7JYDpi-15" target="3QitttOkeHnhthOmKTJF-3" edge="1">
          <mxGeometry relative="1" as="geometry" />
        </mxCell>
        <mxCell id="rVu3aqndrenk4j7JYDpi-15" value="接受审核结果&lt;br&gt;修改审批记录" style="rounded=1;whiteSpace=wrap;html=1;fillColor=#f8cecc;strokeColor=#b85450;" parent="rVu3aqndrenk4j7JYDpi-1" vertex="1">
          <mxGeometry x="650" y="440" width="120" height="60" as="geometry" />
        </mxCell>
        <mxCell id="3QitttOkeHnhthOmKTJF-2" style="edgeStyle=orthogonalEdgeStyle;rounded=0;orthogonalLoop=1;jettySize=auto;html=1;exitX=0.5;exitY=1;exitDx=0;exitDy=0;entryX=0.5;entryY=0;entryDx=0;entryDy=0;" parent="rVu3aqndrenk4j7JYDpi-1" source="3QitttOkeHnhthOmKTJF-0" target="rVu3aqndrenk4j7JYDpi-15" edge="1">
          <mxGeometry relative="1" as="geometry" />
        </mxCell>
        <mxCell id="3QitttOkeHnhthOmKTJF-0" value="发起人工审核" style="rounded=1;whiteSpace=wrap;html=1;fillColor=#f8cecc;strokeColor=#b85450;" parent="rVu3aqndrenk4j7JYDpi-1" vertex="1">
          <mxGeometry x="650" y="320" width="120" height="60" as="geometry" />
        </mxCell>
        <mxCell id="3QitttOkeHnhthOmKTJF-3" value="MQ通知对公系统" style="rounded=1;whiteSpace=wrap;html=1;fillColor=#f8cecc;strokeColor=#b85450;" parent="rVu3aqndrenk4j7JYDpi-1" vertex="1">
          <mxGeometry x="650" y="560" width="120" height="60" as="geometry" />
        </mxCell>
        <mxCell id="3QitttOkeHnhthOmKTJF-5" value="对公查询ekyc结果" style="rounded=1;whiteSpace=wrap;html=1;fillColor=#f8cecc;strokeColor=#b85450;" parent="rVu3aqndrenk4j7JYDpi-1" vertex="1">
          <mxGeometry x="650" y="700" width="120" height="60" as="geometry" />
        </mxCell>
        <mxCell id="3QitttOkeHnhthOmKTJF-6" value="定时任务同步审批结果" style="rounded=1;whiteSpace=wrap;html=1;fillColor=#f8cecc;strokeColor=#b85450;" parent="rVu3aqndrenk4j7JYDpi-1" vertex="1">
          <mxGeometry x="650" y="840" width="120" height="60" as="geometry" />
        </mxCell>
      </root>
    </mxGraphModel>
  </diagram>
  <diagram id="rk6mlevVLIz8R-U7IFfp" name="第 3 页">
    <mxGraphModel dx="1483" dy="781" grid="1" gridSize="10" guides="1" tooltips="1" connect="1" arrows="1" fold="1" page="1" pageScale="1" pageWidth="827" pageHeight="1169" math="0" shadow="0">
      <root>
        <mxCell id="K2FJl-IrI8WriEFIL86t-0" />
        <mxCell id="K2FJl-IrI8WriEFIL86t-1" parent="K2FJl-IrI8WriEFIL86t-0" />
        <mxCell id="K2FJl-IrI8WriEFIL86t-7" value="" style="rounded=0;whiteSpace=wrap;html=1;fillColor=none;" vertex="1" parent="K2FJl-IrI8WriEFIL86t-1">
          <mxGeometry x="346" y="30" width="256" height="520" as="geometry" />
        </mxCell>
        <mxCell id="K2FJl-IrI8WriEFIL86t-2" value="发送/验证OTP" style="rounded=1;whiteSpace=wrap;html=1;" vertex="1" parent="K2FJl-IrI8WriEFIL86t-1">
          <mxGeometry x="414" y="80" width="120" height="60" as="geometry" />
        </mxCell>
        <mxCell id="K2FJl-IrI8WriEFIL86t-3" value="查询对公开户列表" style="rounded=1;whiteSpace=wrap;html=1;" vertex="1" parent="K2FJl-IrI8WriEFIL86t-1">
          <mxGeometry x="414" y="200" width="120" height="60" as="geometry" />
        </mxCell>
        <mxCell id="K2FJl-IrI8WriEFIL86t-4" value="DA/MS" style="rounded=1;whiteSpace=wrap;html=1;" vertex="1" parent="K2FJl-IrI8WriEFIL86t-1">
          <mxGeometry x="414" y="320" width="120" height="60" as="geometry" />
        </mxCell>
        <mxCell id="K2FJl-IrI8WriEFIL86t-5" value="签署开户授权书" style="rounded=1;whiteSpace=wrap;html=1;" vertex="1" parent="K2FJl-IrI8WriEFIL86t-1">
          <mxGeometry x="414" y="440" width="120" height="60" as="geometry" />
        </mxCell>
        <mxCell id="K2FJl-IrI8WriEFIL86t-6" value="审批QA单" style="rounded=1;whiteSpace=wrap;html=1;" vertex="1" parent="K2FJl-IrI8WriEFIL86t-1">
          <mxGeometry x="414" y="630" width="120" height="60" as="geometry" />
        </mxCell>
        <mxCell id="K2FJl-IrI8WriEFIL86t-9" style="edgeStyle=orthogonalEdgeStyle;rounded=0;orthogonalLoop=1;jettySize=auto;html=1;" edge="1" parent="K2FJl-IrI8WriEFIL86t-1" source="K2FJl-IrI8WriEFIL86t-8">
          <mxGeometry relative="1" as="geometry">
            <mxPoint x="340" y="330" as="targetPoint" />
          </mxGeometry>
        </mxCell>
        <mxCell id="K2FJl-IrI8WriEFIL86t-8" value="用户" style="shape=umlActor;verticalLabelPosition=bottom;verticalAlign=top;html=1;fillColor=none;" vertex="1" parent="K2FJl-IrI8WriEFIL86t-1">
          <mxGeometry x="110" y="300" width="30" height="60" as="geometry" />
        </mxCell>
        <mxCell id="K2FJl-IrI8WriEFIL86t-11" style="edgeStyle=orthogonalEdgeStyle;rounded=0;orthogonalLoop=1;jettySize=auto;html=1;entryX=0;entryY=0.5;entryDx=0;entryDy=0;" edge="1" parent="K2FJl-IrI8WriEFIL86t-1" source="K2FJl-IrI8WriEFIL86t-10" target="K2FJl-IrI8WriEFIL86t-6">
          <mxGeometry relative="1" as="geometry" />
        </mxCell>
        <mxCell id="K2FJl-IrI8WriEFIL86t-10" value="OPS" style="shape=umlActor;verticalLabelPosition=bottom;verticalAlign=top;html=1;fillColor=none;" vertex="1" parent="K2FJl-IrI8WriEFIL86t-1">
          <mxGeometry x="110" y="630" width="30" height="60" as="geometry" />
        </mxCell>
      </root>
    </mxGraphModel>
  </diagram>
</mxfile>
